# xmcd CD database file
#
# Track frame offsets:
#	150
#	24500
#	34415
#	50712
#	74460
#	96442
#	120430
#	130560
#	144440
#	162120
#	175220
#	197172
#	227842
#	241470
#
# Disc length: 3493 seconds
#
# Revision: 0
# Processed by: cddbd v1.5.2PL0 Copyright (c) Steve Scherf et al.
# Submitted via: CDex 1.60beta1-cs1
#
DISCID=c40da30e
DTITLE=Sumiko Yoseyama - Duo
DYEAR=1900
DGENRE=Jazz
TTITLE0=Embraceable You
TTITLE1=What a Little Moonlight Can Do
TTITLE2=I didn't Know what time it was
TTITLE3=Body and Soul
TTITLE4=Good Morning Heartache
TTITLE5=I remember Cliford
TTITLE6=Nice work if You can get it
TTITLE7=You'd be so nice to come home to
TTITLE8=Teach me Tonight
TTITLE9=Come in from the Rain
TTITLE10=Summertime
TTITLE11=Round about Midnight
TTITLE12=All of you
TTITLE13=Misty
EXTD=
EXTT0=
EXTT1=
EXTT2=
EXTT3=
EXTT4=
EXTT5=
EXTT6=
EXTT7=
EXTT8=
EXTT9=
EXTT10=
EXTT11=
EXTT12=
EXTT13=
PLAYORDER=
